HIERARCHY
ROOT pelvis
{
  OFFSET 0 100 0
  CHANNELS 6 Xposition Yposition Zposition Zrotation Xrotation Yrotation
  JOINT pelvis_right_femur
  {
    OFFSET -10.78128 -3.44521 -0.5502486
    CHANNELS 3 Zrotation Xrotation Yrotation
    JOINT right_femur_tibia
    {
      OFFSET -0.8047443 -44.0398 -0.1307829
      CHANNELS 3 Zrotation Xrotation Yrotation
      JOINT right_tibia_foot
      {
        OFFSET 3.006224 -47.83518 -5
        CHANNELS 3 Zrotation Xrotation Yrotation
        End Site
        {
          OFFSET 0 -5 15
        }
      }
    }
  }
  JOINT pelvis_left_femur
  {
    OFFSET 10.78128 -3.44521 -0.5502486
    CHANNELS 3 Zrotation Xrotation Yrotation
    JOINT left_femur_tibia
    {
      OFFSET 0.8047443 -44.0398 -0.1307829
      CHANNELS 3 Zrotation Xrotation Yrotation
      JOINT left_tibia_foot
      {
        OFFSET -4.370144 -48.10324 -4.275266
        CHANNELS 3 Zrotation Xrotation Yrotation
        End Site
        {
          OFFSET 0 -5 15
        }
      }
    }
  }
  JOINT pelvis_spine1
  {
    OFFSET 0 6.468898 -3.129235
    CHANNELS 3 Zrotation Xrotation Yrotation
    JOINT spine1
    {
      OFFSET 0 23.15396 4.99043
      CHANNELS 3 Zrotation Xrotation Yrotation
      JOINT spine2
      {
        OFFSET 0 20.79997 -5.064912
        CHANNELS 3 Zrotation Xrotation Yrotation
        JOINT neck
        {
          OFFSET 0 14.38658 9.616178
          CHANNELS 3 Zrotation Xrotation Yrotation
          End Site
          {
            OFFSET 0 20 0
          }
        }
      }
      JOINT right_manubrium
      {
        OFFSET -5.722621 16.35077 3.967754
        CHANNELS 3 Zrotation Xrotation Yrotation
        JOINT right_clavicle
        {
          OFFSET -13.16364 1.694482 -4.693211
          CHANNELS 3 Zrotation Xrotation Yrotation
          JOINT right_humerus
          {
            OFFSET -28.5034 -0.3100689 -2.792744
            CHANNELS 3 Zrotation Xrotation Yrotation
            JOINT right_radius
            {
              OFFSET -25.15693 0.02248979 -1.271978
              CHANNELS 3 Zrotation Xrotation Yrotation
              End Site
              {
                OFFSET -15 0 0
              }
            }
          }
        }
      }
      JOINT left_manubrium
      {
        OFFSET 5.722621 16.35077 3.967754
        CHANNELS 3 Zrotation Xrotation Yrotation
        JOINT left_clavicle
        {
          OFFSET 13.16364 1.694482 -4.693211
          CHANNELS 3 Zrotation Xrotation Yrotation
          JOINT left_humerus
          {
            OFFSET 29.39168 -1.063119 -2.237045
            CHANNELS 3 Zrotation Xrotation Yrotation
            JOINT left_radius
            {
              OFFSET 24.59957 -0.9528479 0.9047498
              CHANNELS 3 Zrotation Xrotation Yrotation
              End Site
              {
                OFFSET 15 -0 -0
              }
            }
          }
        }
      }
    }
  }
}
MOTION
Frames: 23
Frame Time: 0.0416666666667
0 103.5113 0 1.331091 -1.127078 -0.01912125 3.606077 -15.32868 10.83848 -0 40.28463 -0 -5.141884 -17.79516 -4.096704 -7.39023 10.69043 -23.97341 -0 6.894081 -0 11.80522 -14.24389 28.57124 -4.167531 -4.027284 4.589826 2.698914 9.757882 -7.57154 1.423356 22.24754 6.463135 2.678026 -24.3156 9.446026 6.689412 -20.02808 11.74216 85.43847 36.58215 -18.63746 -0 0 16.1609 -6.271933 7.914624 4.779355 4.634011 -18.28078 -2.103109 -93.44062 26.5821 22.13328 0 0 -15.79708 7.991278 15.69774 5.032176
0.2699842 103.7654 1.484439 1.112464 -0.9070745 -0.04801375 3.850429 -16.48586 10.63372 -0 39.56795 -0 -5.13132 -17.07667 -3.96839 -7.282357 10.73215 -23.72011 -0 6.645498 -0 11.24715 -14.97314 28.15334 -3.984887 -3.824396 4.616813 2.683747 9.733894 -7.585923 1.456793 22.09044 6.562088 2.755576 -24.54463 9.549519 6.53373 -20.02746 11.69624 85.51518 36.22129 -18.75648 -0 0 16.27617 -6.37885 7.957485 4.745584 4.873186 -18.52723 -2.019177 -93.53427 26.66033 22.23895 0 0 -16.08684 7.928075 15.70916 5.25852
0.6149029 103.7902 3.285903 0.2192076 0.6761347 -0.005279022 5.254412 -22.38735 10.1765 -0 34.6349 -0 -4.797394 -14.80009 -3.428216 -6.9123 11.0563 -22.80856 -0 5.64829 -0 9.394122 -18.17777 26.5888 -3.340537 -3.041897 4.895363 2.820144 9.496722 -7.769121 1.605342 21.19631 6.971165 3.153008 -25.68648 10.0137 6.207427 -19.94682 11.53052 85.59386 35.5331 -19.45931 -0 0 16.78156 -6.152634 8.219428 4.236184 6.078725 -19.57896 -1.4011 -93.92191 26.70782 22.61025 0 0 -17.67438 8.243949 15.63411 5.460684
0.9892519 103.6234 5.380392 -0.3271338 1.966157 0.1446233 6.331186 -26.50841 9.960326 -0 30.47273 -0 -4.598962 -13.09388 -3.025765 -6.669047 11.49804 -22.05127 -0 5.409493 -0 8.178109 -20.25148 25.38611 -3.010582 -2.568546 5.023273 3.008247 9.293839 -7.972129 1.655698 20.53286 7.265255 3.478973 -26.44431 10.26397 6.139331 -19.72784 11.44117 85.65296 35.54339 -20.09943 -0 0 16.77712 -5.89502 8.48416 3.803967 6.916211 -20.32655 -0.9243005 -93.95349 26.52072 22.51963 0 0 -18.97056 8.716459 15.46295 5.116856
1.36715 103.3085 7.876161 -0.8493566 3.121549 0.4121256 7.3588 -30.14674 9.624758 -0 26.37327 -0 -4.635456 -10.90657 -2.616024 -6.356536 12.15048 -21.02586 -0 5.857369 -0 6.604507 -22.03402 23.81067 -2.685157 -2.123542 4.968374 3.193839 9.09709 -8.200196 1.646162 19.94536 7.56838 3.815299 -27.05363 10.41526 6.043187 -19.34011 11.3453 85.87379 35.60057 -20.82731 -0 0 16.34547 -5.869286 8.800408 3.447128 7.648127 -21.08152 -0.5375578 -93.73157 26.25819 22.05739 0 0 -20.27239 9.132297 15.23077 4.655013
1.728095 102.8992 10.83543 -1.330492 4.061797 0.7920959 8.269805 -32.91731 9.243802 -0 22.78977 -0 -4.895073 -8.674181 -2.241866 -6.002988 12.87974 -19.89175 -0 7.054706 -0 4.828681 -23.21355 22.00832 -2.340088 -1.76644 4.76377 3.35176 8.91804 -8.422777 1.58233 19.47964 7.842242 4.111831 -27.46255 10.46097 5.948717 -18.84984 11.25167 86.20601 35.72498 -21.55633 -0 0 15.6193 -6.010664 9.145499 3.197516 8.182545 -21.72524 -0.2693315 -93.35829 25.96633 21.39594 0 0 -21.41094 9.422302 14.95716 4.207291
2.057212 102.4599 14.32631 -1.811202 4.69935 1.270109 9.024172 -34.73574 8.735537 -0 19.91417 -0 -5.423899 -6.476337 -1.904278 -5.575711 13.61595 -18.61849 -0 9.172422 -0 2.76837 -23.67402 19.92245 -1.905183 -1.470328 4.404379 3.451174 8.767566 -8.620569 1.472166 19.16503 8.075267 4.344816 -27.64605 10.4022 5.799948 -18.27089 11.14546 86.66754 35.77244 -22.23585 -0 0 14.63817 -6.378064 9.507065 3.08453 8.491177 -22.24726 -0.1564889 -92.84614 25.65662 20.55584 0 0 -22.28644 9.56974 14.66171 3.828177
2.347811 102.0698 18.39309 -2.287653 4.967696 1.809154 9.570899 -35.46325 8.08076 -0 17.91473 -0 -6.206048 -4.575311 -1.619281 -5.080664 14.23503 -17.25519 -0 12.33786 -0 0.5412145 -23.26818 17.66621 -1.359769 -1.23457 3.927589 3.475345 8.656904 -8.774526 1.326123 19.0304 8.242948 4.487527 -27.58148 10.2389 5.589238 -17.6395 11.02537 87.22908 35.69857 -22.79894 -0 0 13.4807 -6.951454 9.859979 3.118506 8.541436 -22.61118 -0.2171987 -92.23163 25.33872 19.5993 0 0 -22.79539 9.589471 14.3602 3.539321
2.600714 101.8202 23.05053 -2.72851 4.792863 2.346463 9.856381 -34.97787 7.254638 -0 16.84961 -0 -7.201424 -3.205265 -1.412033 -4.536846 14.59858 -15.8346 -0 16.69255 -0 -1.668794 -21.91378 15.41775 -0.7181964 -1.050236 3.386487 3.416533 8.601917 -8.866661 1.157345 19.1066 8.318035 4.520337 -27.2487 9.969394 5.304078 -16.989 10.89329 87.86204 35.45423 -23.18095 -0 0 12.20315 -7.711571 10.16465 3.29811 8.31962 -22.80084 -0.462442 -91.52935 24.99436 18.54837 0 0 -22.85409 9.535235 14.06137 3.29565
2.822887 101.8101 28.26841 -3.070996 4.128115 2.796579 9.853093 -33.19857 6.280772 -0 16.63994 -0 -8.323483 -2.568288 -1.320694 -3.988337 14.53399 -14.40728 -0 22.32322 -0 -3.619562 -19.64811 13.42276 -0.0405649 -0.9060378 2.867987 3.278412 8.621266 -8.877675 0.9862303 19.41093 8.273828 4.438954 -26.64559 9.598674 4.94586 -16.36419 10.75924 88.52183 35.01909 -23.32756 -0 0 10.87758 -8.609965 10.37581 3.599119 7.84251 -22.81489 -0.8789356 -90.77695 24.59853 17.45033 0 0 -22.41678 9.468229 13.77303 3.033965
3.023306 102.1337 33.95909 -3.23385 2.968099 3.065618 9.567883 -30.11385 5.232629 -0 17.05459 -0 -9.455247 -2.759105 -1.382037 -3.496621 13.82702 -13.032 -0 29.21065 -0 -5.086724 -16.66634 11.9292 0.5739901 -0.7814763 2.488198 3.071215 8.737583 -8.784259 0.8420236 19.93787 8.090094 4.261666 -25.79436 9.141045 4.527284 -15.82426 10.64174 89.14937 34.39989 -23.19826 -0 0 9.601706 -9.586172 10.45788 3.977893 7.165306 -22.67426 -1.428666 -90.04738 24.12429 16.39803 0 0 -21.48606 9.441631 13.50823 2.69435
3.207241 102.8568 39.97075 -3.140868 1.378716 3.078123 9.039408 -25.82706 4.223164 -0 17.71542 -0 -10.47228 -3.712552 -1.601013 -3.124825 12.21854 -11.77386 -0 37.11126 -0 -5.922694 -13.3289 11.12714 1.004296 -0.644724 2.379227 2.805066 8.973453 -8.55875 0.7602572 20.64547 7.761209 4.032493 -24.75244 8.621909 4.078454 -15.44718 10.56804 89.66545 33.65535 -22.76572 -0 0 8.516735 -10.58041 10.40804 4.385539 6.383575 -22.42301 -2.04837 -89.45794 23.56286 15.55768 0 0 -20.13043 9.479327 13.28943 2.261867
3.371347 103.9833 46.09723 -2.751051 -0.4863092 2.807743 8.324314 -20.58697 3.363305 -0 18.13877 -0 -11.27412 -5.184974 -1.919847 -2.907078 9.436112 -10.68386 -0 45.40803 -0 -6.082878 -10.11179 11.10351 1.13871 -0.4559677 2.652225 2.484268 9.342005 -8.175032 0.7714781 21.44975 7.303062 3.810912 -23.61721 8.073982 3.641502 -15.32599 10.57047 89.97281 32.90752 -22.00636 -0 0 7.802158 -11.55827 10.27078 4.798257 5.621256 -22.12351 -2.658167 -89.14423 22.93265 15.15102 0 0 -18.49358 9.569265 13.14103 1.786902
3.504009 105.4188 52.11344 -2.087644 -2.388042 2.295188 7.496876 -14.78098 2.716431 -0 17.82806 -0 -11.80438 -6.815757 -2.21382 -2.808784 5.281162 -9.76523 -0 52.98362 -0 -5.614505 -7.494045 11.82006 0.9186332 -0.1817247 3.341681 2.109948 9.830521 -7.624384 0.8811256 22.23089 6.756918 3.645593 -22.52199 7.530969 3.253257 -15.55544 10.67835 89.96605 32.32436 -20.88525 -0 0 7.646056 -12.52859 10.13076 5.251999 5.002637 -21.83885 -3.173883 -89.20738 22.26885 15.39207 0 0 -16.78119 9.67008 13.06611 1.376949
3.594103 106.9571 57.83489 -1.257859 -4.035614 1.635902 6.666471 -8.86292 2.269204 -0 16.42095 -0 -12.05372 -8.286974 -2.331448 -2.692454 -0.2367628 -8.936343 -0 58.25198 -0 -4.634379 -5.796881 13.11041 0.3832251 0.1823598 4.354057 1.694719 10.38299 -6.93869 1.048462 22.8555 6.187857 3.541122 -21.61657 7.022317 2.920271 -16.20938 10.90432 89.54965 32.05765 -19.3454 -0 0 8.197542 -13.54039 10.07671 5.857923 4.612737 -21.60446 -3.519287 -89.65989 21.59578 16.39963 0 0 -15.20619 9.725844 13.01822 1.156946
3.645582 108.3109 63.17955 -0.4520005 -5.147553 0.937249 5.983592 -3.22785 1.934075 -0 13.85106 -0 -12.04803 -9.524315 -2.161944 -2.317982 -6.777473 -8.020225 -0 59.49591 -0 -3.323349 -5.039521 14.69845 -0.3108244 0.5905135 5.46402 1.282115 10.89448 -6.207349 1.18215 23.21137 5.676786 3.442991 -21.03142 6.571716 2.607339 -17.31268 11.22718 88.65901 32.16132 -17.3229 -0 0 9.521016 -14.65244 10.15031 6.772266 4.463245 -21.4041 -3.634613 -90.40735 20.91115 18.1365 0 0 -13.90189 9.678725 12.89701 1.219781
3.68869 109.1908 68.19813 0.09991619 -5.528152 0.2727311 5.589029 1.903335 1.588589 -0 10.43962 -0 -11.82534 -10.7827 -1.680126 -1.418771 -13.64952 -6.803303 -0 55.53696 -0 -1.928516 -4.914698 16.24754 -0.9308269 0.9402682 6.39239 0.9502314 11.23184 -5.565113 1.170488 23.24327 5.305015 3.267446 -20.83241 6.197584 2.26109 -18.81078 11.57908 87.27959 32.55159 -14.80308 -0 0 11.56418 -15.89044 10.31367 8.11369 4.487877 -21.17381 -3.48389 -91.2848 20.20187 20.41316 0 0 -12.84884 9.483326 12.59308 1.585551
3.778591 109.4014 73.05415 0.2292164 -5.137754 -0.3324462 5.505246 6.511773 1.140139 -0 6.844154 -0 -11.41257 -12.4565 -0.9306572 0.1165575 -19.9538 -5.195378 -0 46.49165 -0 -0.7239916 -4.944994 17.4522 -1.282815 1.090444 6.945813 0.7800143 11.28289 -5.136281 0.94474 22.97528 5.132198 2.973817 -20.98251 5.912862 1.864058 -20.54334 11.85246 85.46456 33.05696 -11.8954 -0 0 14.13675 -17.21977 10.46624 9.862131 4.580009 -20.84001 -3.066905 -92.13064 19.47104 22.94513 0 0 -11.87027 9.135049 12.06711 2.172792
3.981691 108.9072 77.9685 -0.05083423 -4.133722 -0.8855825 5.551635 10.7003 0.5821907 -0 3.882179 -0 -10.83124 -14.6474 0.02541224 2.017786 -24.86917 -3.437262 -0 34.13159 -0 0.09149631 -4.750393 18.16329 -1.34175 0.913014 7.129022 0.7962427 11.01457 -4.954984 0.5410082 22.51081 5.173676 2.630314 -21.33289 5.725235 1.476222 -22.24357 11.93746 83.35287 33.52491 -8.864514 -0 0 16.90203 -18.5576 10.50433 11.81007 4.655412 -20.36545 -2.437447 -92.85113 18.74069 25.41817 0 0 -10.70985 8.701524 11.40553 2.793638
4.35952 107.8386 83.16136 -0.5041778 -2.859305 -1.413209 5.389048 14.56008 0.004886693 -0 2.33526 -0 -10.14386 -16.79983 1.132554 3.590834 -27.94139 -2.140615 -0 21.44561 -0 0.4868321 -4.253344 18.4744 -1.285788 0.3707502 7.129653 0.9255311 10.50799 -4.920376 0.1096222 22.00882 5.38908 2.406873 -21.66402 5.638901 1.214535 -23.59471 11.77653 81.18616 33.8816 -6.073442 -0 0 19.40983 -19.82046 10.37398 13.62428 4.696579 -19.76684 -1.717039 -93.43639 18.03349 27.53653 0 0 -9.154211 8.314319 10.79778 3.212204
4.955246 106.4466 88.80904 -0.7835848 -1.763921 -1.952236 4.704092 18.05662 -0.4531937 -0 2.818166 -0 -9.508039 -17.77451 2.297607 4.067671 -29.16162 -1.961308 -0 11.47713 -0 0.5794715 -3.6838 18.66724 -1.377869 -0.4310243 7.16643 1.016718 9.942817 -4.839596 -0.1512648 21.63982 5.692324 2.476189 -21.77565 5.653416 1.168409 -24.34341 11.39819 79.31421 34.08475 -3.874716 -0 0 21.19838 -20.96953 10.07531 14.99889 4.743284 -19.09936 -1.082049 -93.92578 17.3707 29.06619 0 0 -7.146147 8.099865 10.43697 3.274487
5.776739 105.039 95.01093 -0.6407819 -1.264741 -2.510798 3.412234 20.98141 -0.6929698 -0 5.695608 -0 -9.17155 -16.42046 3.355502 3.126276 -28.76837 -3.121943 -0 6.0631 -0 0.5189282 -3.39339 19.02037 -1.779396 -1.274923 7.317445 0.919493 9.52655 -4.542844 -0.1022434 21.53296 5.982719 2.88906 -21.58167 5.758691 1.314475 -24.40622 10.90212 78.15169 34.03411 -2.521468 -0 0 21.9396 -22.01117 9.630041 15.79879 4.838716 -18.43494 -0.7118926 -94.34993 16.79678 29.87302 0 0 -4.840339 8.095991 10.41187 3.022136
6.778979 103.9191 101.7599 -0.07585363 -1.602081 -3.015679 1.728455 22.99672 -0.7327636 -0 10.98682 -0 -9.359021 -12.26686 4.148495 1.089152 -27.00349 -5.25361 -0 5.232015 -0 0.3851228 -3.625677 19.62447 -2.446655 -1.928413 7.467077 0.5655839 9.402659 -3.986562 0.2631953 21.73744 6.185239 3.52778 -21.14236 5.936192 1.508446 -23.8902 10.40992 78.04634 33.55335 -2.116487 -0 0 21.54996 -22.95657 9.055975 16.09275 4.980816 -17.85203 -0.7218707 -94.68461 16.39185 29.92925 0 0 -2.56478 8.227505 10.67376 2.674059
